PathFileType	3	(X/Y/Z)	E:\ViconData\BIOM9541 2025\Week 7\Wed1100\Hanif high squat 2-5 Squat 01.trc
DataRate	CameraRate	NumFrames	NumMarkers	Units	OrigDataRate	OrigDataStartFrame	OrigNumFrames
200.0	200.0	13	19	mm	200.0	836	1337	
Frame#	Time	C7			CLAV			RBAK			LASI			RASI			LPSI			RPSI			LTHI			LKNE			LTIB			LANK			LHEE			LTOE			RTHI			RKNE			RTIB			RANK			RHEE			RTOE			
		X1	Y1	Z1	X2	Y2	Z2	X3	Y3	Z3	X4	Y4	Z4	X5	Y5	Z5	X6	Y6	Z6	X7	Y7	Z7	X8	Y8	Z8	X9	Y9	Z9	X10	Y10	Z10	X11	Y11	Z11	X12	Y12	Z12	X13	Y13	Z13	X14	Y14	Z14	X15	Y15	Z15	X16	Y16	Z16	X17	Y17	Z17	X18	Y18	Z18	X19	Y19	Z19	
836	4.175	306.32089	1319.0186	-1203.1899	158.8705	1249.564	-1192.7902	326.19229	1232.9565	-1350.1259	185.32681	876.57166	-1075.6976	183.2168	888.3582	-1336.2754	354.7275	941.2889	-1161.1748	355.8127	939.6467	-1236.4253	235.82187	558.69391	-985.21802	246.74426	419.01392	-983.49622	285.88763	215.34111	-951.25433	307.29858	64.202293	-959.99451	326.11234	48.763695	-1019.392	162.80675	37.748589	-927.69672	246.06026	733.07935	-1406.8678	268.70517	421.40018	-1424.3575	285.42267	334.5033	-1447.0458	304.32986	74.541901	-1444.1957	324.12067	48.82827	-1380.3395	163.36664	40.632961	-1479.809	
837	4.18	306.44034	1318.9957	-1203.2799	159.02536	1249.571	-1192.7456	326.22031	1232.9449	-1350.2341	185.41721	876.604	-1075.6598	183.2085	888.272	-1336.3193	354.7588	941.2882	-1161.2365	355.0958	938.9824	-1235.7288	235.77966	558.73987	-985.18243	246.59923	418.99411	-983.40619	285.82584	215.33902	-951.22571	307.24915	64.215126	-959.94049	326.0675	48.751518	-1019.3953	162.83948	37.711853	-927.75574	246.07059	733.00397	-1406.8868	268.64621	421.41464	-1424.4039	285.35464	334.47809	-1447.0896	304.26797	74.533356	-1444.2615	324.06158	48.875546	-1380.2905	163.32039	40.61245	-1479.8226	
838	4.185	306.54956	1318.957	-1203.361	159.18405	1249.6117	-1192.7158	326.23276	1232.9355	-1350.2887	185.50089	876.62128	-1075.6469	183.0068	888.2633	-1336.5908	354.822	941.2296	-1161.4719	355.3185	938.9486	-1235.8972	235.69969	558.79138	-985.11493	246.47458	419.03787	-983.34137	285.74478	215.3688	-951.18726	307.26047	64.230583	-959.98285	326.02643	48.694347	-1019.4056	162.84344	37.691658	-927.80212	246.03716	732.92102	-1406.9049	268.60638	421.36835	-1424.4209	285.33408	334.37646	-1447.11	304.22717	74.473541	-1444.2681	323.99942	48.92091	-1380.3386	163.31102	40.536198	-1479.824	
839	4.19	306.64456	1318.9315	-1203.3435	159.29314	1249.6921	-1192.6772	326.25677	1232.9534	-1350.322	185.57898	876.68201	-1075.6235	183.0196	888.2402	-1336.561	354.922	941.1763	-1161.6178	355.6522	938.8314	-1236.2274	235.65515	558.8335	-985.09357	246.40182	419.09805	-983.30957	285.71899	215.43216	-951.21521	307.27115	64.248734	-960.02777	326.0112	48.598156	-1019.3884	162.80791	37.668701	-927.82727	246.01233	732.88306	-1406.9166	268.55905	421.3132	-1424.4153	285.30551	334.30499	-1447.085	304.17496	74.392273	-1444.2687	324.00146	48.921848	-1380.4049	163.26886	40.4907	-1479.8083	
840	4.195	306.78006	1318.9362	-1203.2964	159.38383	1249.7621	-1192.5812	326.26602	1232.9938	-1350.3602	185.69621	876.68243	-1075.6957	183.0266	888.2554	-1336.5166	355.0401	941.1542	-1161.6655	355.758	938.8635	-1236.2627	235.62198	558.84967	-985.06262	246.33659	419.13522	-983.29419	285.7041	215.42236	-951.23065	307.29089	64.290581	-960.04938	325.9639	48.621758	-1019.3605	162.73477	37.703644	-927.78015	245.95654	732.90125	-1406.8972	268.56479	421.32184	-1424.3818	285.31128	334.31592	-1447.0494	304.14032	74.389816	-1444.2225	324.04996	48.972534	-1380.4674	163.23413	40.450485	-1479.7198	
841	4.2	306.9006	1318.939	-1203.1857	159.49847	1249.8344	-1192.3905	326.30127	1233.0415	-1350.3226	185.82726	876.65045	-1075.7219	183.0616	888.3743	-1336.4862	355.2	941.0822	-1161.4574	355.839	938.7622	-1236.2765	235.59225	558.76929	-985.05365	246.28145	419.06839	-983.2915	285.69983	215.39507	-951.25916	307.28888	64.273392	-960.04706	325.95096	48.652981	-1019.3495	162.64737	37.696774	-927.63617	245.93248	732.94702	-1406.892	268.61072	421.38702	-1424.3365	285.3826	334.38751	-1446.988	304.15247	74.463448	-1444.1724	324.03802	48.928036	-1380.3995	163.24884	40.496647	-1479.666	
842	4.205	307.07422	1318.9739	-1203.1298	159.61938	1249.9172	-1192.2589	326.42572	1233.1471	-1350.3539	185.97574	876.64197	-1075.7592	183.1354	888.4746	-1336.4595	355.3881	941.0179	-1161.3188	355.6628	938.9776	-1235.8508	235.6077	558.75037	-985.04327	246.23462	419.03812	-983.2569	285.7283	215.31731	-951.31128	307.34726	64.276924	-960.04736	325.98813	48.682068	-1019.3323	162.64104	37.690228	-927.56403	245.95723	733.01331	-1406.9087	268.72418	421.41287	-1424.2986	285.45624	334.44708	-1446.9564	304.21747	74.471748	-1444.1644	324.0961	48.877007	-1380.3905	163.27953	40.529972	-1479.6477	
843	4.21	307.28464	1319.0074	-1203.1154	159.63884	1250.1415	-1192.1992	326.53839	1233.1614	-1350.3906	186.0965	876.63507	-1075.7651	183.2632	888.5114	-1336.4567	355.5902	940.891	-1161.4623	355.7443	938.8678	-1235.8541	235.61903	558.73706	-985.01514	246.21886	419.01654	-983.26141	285.7352	215.30687	-951.29999	307.2514	64.087708	-960.16504	326.01706	48.672112	-1019.3666	162.68051	37.705021	-927.59033	245.99751	733.06702	-1406.9366	268.85757	421.37881	-1424.2903	285.58466	334.44586	-1446.9613	304.28946	74.47113	-1444.1329	324.15921	48.818733	-1380.4895	163.33136	40.518585	-1479.671	
844	4.215	307.5119	1318.9976	-1203.1949	159.98438	1250.0546	-1192.1689	326.72003	1233.177	-1350.4867	186.26657	876.6955	-1075.7678	183.3932	888.4824	-1336.4622	355.7504	940.7974	-1161.589	356.4416	939.3147	-1236.4033	235.67047	558.77008	-984.99426	246.18706	419.06165	-983.2124	285.73935	215.3167	-951.29626	307.26022	64.003777	-960.25323	326.08313	48.606171	-1019.3958	162.72743	37.730663	-927.67212	246.08382	733.03503	-1406.9622	268.99258	421.33768	-1424.3074	285.72656	334.37115	-1446.9698	304.3721	74.363342	-1444.1824	324.2218	48.738663	-1380.5771	163.38976	40.49234	-1479.7172	
845	4.22	307.73184	1319.0161	-1203.3159	160.20699	1250.1355	-1192.252	326.87857	1233.1993	-1350.5908	186.33488	876.8429	-1075.5104	183.4913	888.5015	-1336.4905	355.8804	940.7866	-1161.834	356.5034	939.3286	-1236.3778	235.67218	558.76642	-984.93066	246.14365	419.04935	-983.15784	285.71924	215.34346	-951.2345	307.26431	63.996254	-960.21161	326.10168	48.585651	-1019.4191	162.80156	37.773254	-927.79742	246.106	733.01288	-1407.0066	269.08234	421.31158	-1424.3252	285.83344	334.33578	-1447.005	304.41254	74.296852	-1444.2102	324.23074	48.709377	-1380.5939	163.41066	40.492256	-1479.757	
846	4.225	307.89871	1319.0024	-1203.3931	160.55716	1250.2601	-1192.6666	326.95978	1233.2169	-1350.6848	186.55733	877.01215	-1075.4692	183.5499	888.5561	-1336.5232	355.9735	940.8296	-1161.8097	355.9122	938.532	-1235.9355	235.7149	558.78204	-984.90503	246.11586	419.07233	-983.10297	285.70541	215.33049	-951.19916	307.3754	64.19474	-960.02948	326.03857	48.671181	-1019.4695	162.82219	37.741924	-927.81818	246.15408	733.02167	-1407.0498	269.12839	421.38818	-1424.3418	285.86014	334.35675	-1447.0271	304.37912	74.384232	-1444.2555	324.14288	48.75108	-1380.45	163.38927	40.572872	-1479.8131	
847	4.23	308.0752	1319.0327	-1203.4492	160.73976	1250.2499	-1192.4314	327.00797	1233.2191	-1350.6914	186.71753	876.76038	-1075.623	183.583	888.6656	-1336.5508	356.034	940.893	-1161.6876	356.4589	938.4562	-1236.5051	235.73535	558.7218	-984.8689	246.05597	419.04385	-983.03558	285.70493	215.28564	-951.19574	307.29315	64.186531	-960.01221	325.98029	48.716404	-1019.4689	162.82793	37.744507	-927.84058	246.18625	733.02832	-1407.0809	269.15427	421.43073	-1424.344	285.85294	334.43005	-1447.0385	304.31894	74.478302	-1444.2634	324.08636	48.841114	-1380.3466	163.36536	40.65749	-1479.8463	
848	4.235	308.19769	1319.0133	-1203.4167	160.78528	1250.2445	-1192.1371	326.97244	1233.1548	-1350.6558	186.89795	876.77734	-1075.6208	183.6284	888.689	-1336.5409	356.1468	940.8744	-1161.7175	356.5509	938.3674	-1236.5383	235.78224	558.74371	-984.84314	245.9761	419.04904	-982.98846	285.65613	215.28049	-951.14655	307.24704	64.209694	-959.99835	325.93942	48.708508	-1019.4423	162.77007	37.744392	-927.76245	246.21365	733.04126	-1407.0913	269.15512	421.41635	-1424.3507	285.84216	334.40717	-1447.0327	304.27594	74.468666	-1444.2668	324.05612	48.877075	-1380.3129	163.32417	40.638271	-1479.7859	
